P3
24 22
255
250 255 255 250 255 255 249 255 248 249 255 248 250 255 255 
250 255 255 249 254 255 249 254 255 239 246 238 249 255 248 
250 243 251 255 252 255 250 255 255 250 255 255 250 255 255 
250 255 255 239 246 238 249 255 248 250 255 255 250 255 255 
249 255 248 249 255 248 250 255 255 250 255 255 250 255 255 
250 255 255 249 255 248 249 255 248 250 255 255 250 255 255 
249 254 255 249 254 255 249 255 248 219 226 218 199 192 200 
209 202 210 158 163 167 219 224 228 189 194 198 250 255 255 
239 246 238 249 255 248 250 255 255 250 255 255 249 255 248 
249 255 248 250 255 255 250 255 255 249 255 248 249 255 248 
250 255 255 250 255 255 250 255 255 240 245 249 254 247 255 
223 216 224 111 116 120 131 136 140 0 3 7 70 75 79 
58 51 59 7 0 8 67 72 76 138 143 147 169 162 170 
250 243 251 247 240 248 255 250 255 249 254 255 249 254 255 
249 255 248 249 255 248 249 255 248 249 255 248 250 255 255 
250 255 255 250 255 255 240 245 249 121 114 122 91 84 92 
0 4 8 0 4 8 0 3 7 151 156 160 221 214 222 
7 0 8 6 11 14 0 1 5 77 70 78 77 70 78 
206 199 207 255 250 255 249 254 255 249 254 255 249 255 248 
249 255 248 250 255 255 250 255 255 247 252 255 247 252 255 
209 202 210 127 120 128 35 28 36 5 0 6 126 131 135 
208 213 217 229 234 238 148 153 157 113 106 114 225 218 226 
229 234 238 168 172 176 17 10 18 17 10 18 117 110 118 
148 141 149 250 255 255 250 255 255 249 255 248 249 255 248 
250 255 255 250 255 255 247 252 255 227 232 236 168 161 169 
5 0 6 76 69 77 209 202 210 248 253 255 248 253 255 
250 255 255 250 255 255 245 238 246 255 249 255 249 254 255 
249 254 255 231 224 232 109 102 110 15 8 16 87 80 88 
209 214 218 229 234 238 249 255 248 249 255 248 249 254 255 
249 254 255 249 254 255 137 141 145 0 6 0 19 26 18 
133 128 124 194 189 185 163 170 162 163 170 162 173 168 164 
173 168 164 171 176 180 161 166 170 157 164 156 177 184 176 
249 244 240 255 254 250 110 103 111 18 11 19 26 19 27 
220 213 221 249 254 255 249 254 255 249 254 255 249 254 255 
198 203 207 106 111 115 0 6 0 0 6 0 10 5 1 
10 5 1 10 17 9 10 17 9 20 15 11 20 15 11 
18 23 27 8 13 17 14 21 13 14 21 13 96 91 87 
249 244 240 232 225 233 18 11 19 36 29 37 149 142 150 
228 233 237 249 254 255 240 245 249 250 255 255 177 172 168 
14 9 5 136 129 137 75 68 76 98 103 107 27 32 36 
45 40 36 45 40 36 74 79 83 105 110 114 101 106 110 
70 75 79 28 33 37 48 53 57 7 12 16 160 165 169 
242 235 243 119 112 120 57 62 66 77 82 86 247 252 255 
247 252 255 250 255 255 220 225 229 96 91 87 116 111 107 
228 221 229 126 119 127 210 215 219 16 21 25 4 0 0 
4 0 0 197 202 205 248 253 255 244 249 253 234 239 243 
58 63 67 18 23 26 7 12 16 160 165 169 170 163 171 
191 184 192 179 184 188 0 1 5 186 191 195 247 252 255 
250 255 255 240 245 249 99 104 108 0 2 6 119 124 127 
210 215 219 186 191 195 33 38 42 5 0 0 5 0 0 
132 138 130 172 179 171 174 167 175 154 147 155 39 44 47 
0 3 7 94 99 103 237 242 246 229 234 238 148 153 157 
47 52 55 0 1 5 206 201 197 255 252 248 250 255 255 
199 204 208 58 63 67 0 2 6 221 226 229 251 255 255 
186 191 195 33 38 42 5 0 0 46 41 37 0 6 0 
0 6 0 11 4 12 11 4 12 18 23 27 0 3 7 
186 191 195 247 252 255 250 255 255 250 255 255 118 123 127 
6 11 15 155 150 146 247 242 238 249 244 240 239 234 230 
109 102 110 7 0 8 216 221 225 247 252 255 201 196 193 
38 33 29 9 15 8 0 5 0 146 153 145 197 204 196 
178 183 187 96 101 105 0 6 0 0 6 0 81 74 82 
234 227 235 249 254 255 178 183 187 56 51 47 5 0 0 
195 188 196 255 249 255 255 254 250 229 224 220 68 61 69 
7 0 8 175 180 184 247 252 255 181 176 172 38 33 29 
29 36 28 0 5 0 197 204 196 248 255 247 249 254 255 
208 213 217 0 6 0 40 47 39 20 13 21 173 166 174 
239 244 248 45 50 54 5 0 0 15 10 6 174 167 175 
255 249 255 240 245 249 240 245 249 157 164 156 4 11 3 
12 7 3 4 0 0 0 6 0 0 6 0 18 23 27 
38 43 47 59 64 68 0 3 7 203 208 212 244 249 253 
7 14 6 0 4 0 0 6 0 0 6 0 6 0 7 
26 19 27 0 5 9 91 96 100 219 224 228 249 254 255 
250 255 255 250 255 255 157 164 156 4 11 3 63 58 54 
12 7 3 0 6 0 0 6 0 0 2 6 0 2 6 
0 3 7 0 3 7 183 188 192 244 249 253 130 137 129 
0 4 0 0 6 0 0 6 0 6 0 7 46 39 47 
0 5 9 71 76 80 239 244 248 249 254 255 250 255 255 
250 255 255 238 231 239 146 139 147 0 3 7 49 54 58 
183 188 192 173 178 181 180 185 189 201 206 209 197 202 206 
197 202 206 228 233 237 249 254 255 240 233 241 199 192 200 
178 171 179 198 191 199 130 125 121 7 2 0 31 36 40 
215 220 224 239 246 238 250 255 249 250 255 255 250 255 255 
255 251 255 166 159 167 70 75 79 0 3 7 132 137 141 
142 147 151 190 195 199 251 255 255 248 253 255 248 253 255 
249 254 255 249 254 255 255 252 255 240 233 241 147 140 148 
168 161 169 58 53 49 58 53 49 102 107 111 225 230 234 
250 255 249 239 246 238 249 255 248 249 255 248 249 254 255 
249 254 255 184 191 183 0 7 0 131 136 140 213 218 222 
138 131 139 250 243 251 255 253 249 255 253 249 250 255 255 
250 255 255 251 255 255 169 174 178 171 176 180 191 196 200 
4 0 0 96 91 87 239 244 248 249 254 255 249 254 255 
249 254 255 249 255 248 249 255 248 249 254 255 249 254 255 
215 221 214 194 201 193 39 44 48 0 3 7 36 29 37 
107 100 108 166 161 157 207 202 198 199 204 208 178 183 187 
139 144 147 37 42 45 48 53 57 7 12 16 167 162 158 
218 213 209 239 244 248 249 254 255 249 254 255 249 254 255 
250 255 255 250 255 255 255 250 247 255 250 247 249 254 255 
249 254 255 177 182 186 147 152 155 23 18 14 23 18 14 
0 4 8 0 4 8 5 0 0 5 0 0 3 8 12 
3 8 12 97 102 106 169 173 177 219 224 228 250 255 255 
250 255 255 250 255 255 250 255 255 250 255 255 250 255 255 
250 255 255 255 250 247 255 250 247 249 254 255 249 254 255 
249 254 255 238 243 247 176 171 167 176 171 167 91 96 100 
132 137 141 87 82 78 148 143 139 116 121 125 197 202 206 
199 204 208 250 255 255 250 255 255 240 245 248 250 255 255 
250 255 255 250 255 255 250 255 255 
